<svg xmlns="http://www.w3.org/2000/svg" viewBox="0 0 120 120" width="512" height="512"><defs><linearGradient id="mg" x1="0" y1="0.1" x2="1" y2="0.95">
<stop offset="0" stop-color="#0e4d48"></stop><stop offset="0.4" stop-color="#157a73"></stop><stop offset="0.72" stop-color="#2496b8"></stop><stop offset="1" stop-color="#43afe0"></stop></linearGradient></defs><g fill="none" stroke="url(#mg)" stroke-width="1.9" stroke-linecap="round" stroke-linejoin="round"><line x1="22" y1="94" x2="34" y2="26"></line><line x1="34" y1="26" x2="60" y2="62"></line><line x1="60" y1="62" x2="86" y2="26"></line><line x1="86" y1="26" x2="98" y2="94"></line><line x1="34" y1="26" x2="86" y2="26" stroke-width="1.330" opacity="0.5"></line><line x1="22" y1="94" x2="98" y2="94" stroke-width="1.330" opacity="0.5"></line></g><g fill="url(#mg)"><circle cx="22" cy="94" r="4.6"></circle><circle cx="34" cy="26" r="4.6"></circle><circle cx="60" cy="62" r="6.8"></circle><circle cx="86" cy="26" r="4.6"></circle><circle cx="98" cy="94" r="4.6"></circle><circle cx="28" cy="60" r="2.6"></circle><circle cx="47" cy="43" r="2.6"></circle><circle cx="73" cy="43" r="2.6"></circle><circle cx="92" cy="60" r="2.6"></circle><circle cx="60" cy="26" r="2.6"></circle></g></svg>